<?xml version="1.0" encoding="UTF-8"?>
<!DOCTYPE svg PUBLIC "-//W3C//DTD SVG 1.1//EN" "http://www.w3.org/Graphics/SVG/1.1/DTD/svg11.dtd">
<svg xmlns="http://www.w3.org/2000/svg" version="1.1" width="597px" height="597px" style="shape-rendering:geometricPrecision; text-rendering:geometricPrecision; image-rendering:optimizeQuality; fill-rule:evenodd; clip-rule:evenodd" xmlns:xlink="http://www.w3.org/1999/xlink">
<g><path style="opacity:0.989" fill="#fefb00" d="M 407.5,184.5 C 398.863,186.932 390.53,189.932 382.5,193.5C 331.976,191.806 281.976,195.973 232.5,206C 228.848,206.499 225.182,206.665 221.5,206.5C 253.566,190.302 285.566,173.802 317.5,157C 275.579,162.537 233.912,169.704 192.5,178.5C 174.879,181.548 157.213,184.381 139.5,187C 133.5,187.667 127.5,187.667 121.5,187C 120.507,167.91 120.174,148.743 120.5,129.5C 161.633,122.801 202.633,115.301 243.5,107C 308.879,94.4589 374.546,90.7923 440.5,96C 441.701,96.9025 442.535,98.0692 443,99.5C 443.667,120.167 443.667,140.833 443,161.5C 438.068,168.759 431.568,174.259 423.5,178C 417.946,179.9 412.613,182.066 407.5,184.5 Z"/></g>
<g><path style="opacity:0.987" fill="#fefefc" d="M 221.5,206.5 C 217.833,206.5 214.167,206.5 210.5,206.5C 212.972,196.809 209.305,192.642 199.5,194C 196.121,197.412 194.621,201.578 195,206.5C 186.187,208.456 184.354,213.122 189.5,220.5C 177.061,224.717 165.061,230.05 153.5,236.5C 152.893,236.376 152.56,236.043 152.5,235.5C 161.88,213.777 175.213,194.777 192.5,178.5C 233.912,169.704 275.579,162.537 317.5,157C 285.566,173.802 253.566,190.302 221.5,206.5 Z"/></g>
<g><path style="opacity:0.979" fill="#fdfdfa" d="M 407.5,184.5 C 421.668,199.016 432.668,215.682 440.5,234.5C 439.903,235.139 439.07,235.472 438,235.5C 431.234,233.962 424.4,232.795 417.5,232C 401.17,231.5 384.837,231.333 368.5,231.5C 372.575,226.922 376.908,222.422 381.5,218C 387.333,213.5 393.167,209 399,204.5C 400.378,200.102 399.212,196.602 395.5,194C 391.179,193.501 386.846,193.334 382.5,193.5C 390.53,189.932 398.863,186.932 407.5,184.5 Z"/></g>
<g><path style="opacity:1" fill="#030301" d="M 221.5,206.5 C 225.182,206.665 228.848,206.499 232.5,206C 281.976,195.973 331.976,191.806 382.5,193.5C 386.846,193.334 391.179,193.501 395.5,194C 399.212,196.602 400.378,200.102 399,204.5C 393.167,209 387.333,213.5 381.5,218C 376.908,222.422 372.575,226.922 368.5,231.5C 365.269,233.22 362.436,235.553 360,238.5C 346.957,254.575 336.457,272.241 328.5,291.5C 326.226,295.714 324.226,300.047 322.5,304.5C 319.925,308.647 317.591,312.98 315.5,317.5C 319.239,320.135 322.739,323.135 326,326.5C 327.5,334.333 324.333,337.5 316.5,336C 313.577,333.955 310.743,331.788 308,329.5C 300.716,339.785 293.05,349.785 285,359.5C 271.242,373.761 257.075,387.428 242.5,400.5C 240.167,402.167 238.167,404.167 236.5,406.5C 229.993,412.843 223.993,419.677 218.5,427C 224.61,425.627 230.61,423.627 236.5,421C 247.837,418.665 259.171,416.332 270.5,414C 302.5,413.667 334.5,413.333 366.5,413C 376.163,408.478 384.83,402.645 392.5,395.5C 395.075,393.046 398.075,391.38 401.5,390.5C 405.738,393.098 410.404,394.764 415.5,395.5C 416.355,396.531 417.022,397.697 417.5,399C 415.569,403.523 416.403,407.356 420,410.5C 421.294,415.708 420.128,420.208 416.5,424C 412.726,425.183 409.559,424.349 407,421.5C 406.047,419.545 404.713,417.878 403,416.5C 402.667,413.167 402.333,409.833 402,406.5C 392.692,414.905 382.192,421.405 370.5,426C 337.196,427.283 303.863,427.95 270.5,428C 257.635,429.904 245.135,433.071 233,437.5C 224.75,438.868 217.25,442.368 210.5,448C 200.84,449.638 197.84,445.972 201.5,437C 198.64,433.417 198.14,429.584 200,425.5C 207.933,418.29 214.933,410.29 221,401.5C 237.312,385.523 253.979,369.856 271,354.5C 279.715,344.12 288.048,333.453 296,322.5C 296.688,321.668 296.521,321.002 295.5,320.5C 292.734,318.365 289.734,318.032 286.5,319.5C 284.159,319.637 282.159,318.97 280.5,317.5C 277.984,305.851 282.651,301.351 294.5,304C 296.996,305.08 299.33,306.414 301.5,308C 302.5,308.667 303.5,308.667 304.5,308C 306.974,303.552 309.307,299.052 311.5,294.5C 320.704,271.741 332.704,250.741 347.5,231.5C 355.636,223.533 363.969,215.7 372.5,208C 364.507,207.5 356.507,207.334 348.5,207.5C 308.439,207.799 268.772,211.966 229.5,220C 216.144,221.502 202.811,221.669 189.5,220.5C 184.354,213.122 186.187,208.456 195,206.5C 194.621,201.578 196.121,197.412 199.5,194C 209.305,192.642 212.972,196.809 210.5,206.5C 214.167,206.5 217.833,206.5 221.5,206.5 Z"/></g>
<g><path style="opacity:0.996" fill="#fefb02" d="M 348.5,207.5 C 329.452,216.525 310.786,226.358 292.5,237C 310.73,234.686 329.063,232.853 347.5,231.5C 332.704,250.741 320.704,271.741 311.5,294.5C 264.624,304.11 218.29,315.943 172.5,330C 163.546,331.264 154.546,331.764 145.5,331.5C 135.583,332.247 125.916,331.08 116.5,328C 114.919,326.172 113.585,324.172 112.5,322C 112.36,302.706 112.527,283.206 113,263.5C 124.657,252.005 137.824,242.671 152.5,235.5C 152.56,236.043 152.893,236.376 153.5,236.5C 165.061,230.05 177.061,224.717 189.5,220.5C 202.811,221.669 216.144,221.502 229.5,220C 268.772,211.966 308.439,207.799 348.5,207.5 Z"/></g>
<g><path style="opacity:1" fill="#fbfbf9" d="M 348.5,207.5 C 356.507,207.334 364.507,207.5 372.5,208C 363.969,215.7 355.636,223.533 347.5,231.5C 329.063,232.853 310.73,234.686 292.5,237C 310.786,226.358 329.452,216.525 348.5,207.5 Z"/></g>
<g><path style="opacity:0.997" fill="#fefb02" d="M 368.5,231.5 C 384.837,231.333 401.17,231.5 417.5,232C 424.4,232.795 431.234,233.962 438,235.5C 439.07,235.472 439.903,235.139 440.5,234.5C 444.827,235.165 448.827,236.665 452.5,239C 453.863,240.945 454.697,243.112 455,245.5C 455.667,266.5 455.667,287.5 455,308.5C 454.079,311.336 452.912,314.002 451.5,316.5C 441.646,323.932 430.98,330.098 419.5,335C 408.245,339.53 396.911,343.863 385.5,348C 358.063,356.025 330.73,364.359 303.5,373C 282.681,381.106 262.348,390.272 242.5,400.5C 257.075,387.428 271.242,373.761 285,359.5C 293.05,349.785 300.716,339.785 308,329.5C 310.743,331.788 313.577,333.955 316.5,336C 324.333,337.5 327.5,334.333 326,326.5C 322.739,323.135 319.239,320.135 315.5,317.5C 317.591,312.98 319.925,308.647 322.5,304.5C 339.372,300.043 356.039,294.876 372.5,289C 357.811,289.235 343.144,290.068 328.5,291.5C 336.457,272.241 346.957,254.575 360,238.5C 362.436,235.553 365.269,233.22 368.5,231.5 Z"/></g>
<g><path style="opacity:1" fill="#fefdf8" d="M 322.5,304.5 C 324.226,300.047 326.226,295.714 328.5,291.5C 343.144,290.068 357.811,289.235 372.5,289C 356.039,294.876 339.372,300.043 322.5,304.5 Z"/></g>
<g><path style="opacity:0.994" fill="#fefefc" d="M 311.5,294.5 C 309.307,299.052 306.974,303.552 304.5,308C 303.5,308.667 302.5,308.667 301.5,308C 299.33,306.414 296.996,305.08 294.5,304C 282.651,301.351 277.984,305.851 280.5,317.5C 245.56,333.134 210.894,349.634 176.5,367C 171.376,369.541 166.042,371.374 160.5,372.5C 153.719,359.49 148.719,345.823 145.5,331.5C 154.546,331.764 163.546,331.264 172.5,330C 218.29,315.943 264.624,304.11 311.5,294.5 Z"/></g>
<g><path style="opacity:0.993" fill="#fefefd" d="M 451.5,316.5 C 447.44,345.039 436.773,370.706 419.5,393.5C 418.167,394.167 416.833,394.833 415.5,395.5C 410.404,394.764 405.738,393.098 401.5,390.5C 398.075,391.38 395.075,393.046 392.5,395.5C 340.158,394.693 288.158,398.36 236.5,406.5C 238.167,404.167 240.167,402.167 242.5,400.5C 262.348,390.272 282.681,381.106 303.5,373C 330.73,364.359 358.063,356.025 385.5,348C 396.911,343.863 408.245,339.53 419.5,335C 430.98,330.098 441.646,323.932 451.5,316.5 Z"/></g>
<g><path style="opacity:0.986" fill="#fefb00" d="M 280.5,317.5 C 282.159,318.97 284.159,319.637 286.5,319.5C 289.734,318.032 292.734,318.365 295.5,320.5C 296.521,321.002 296.688,321.668 296,322.5C 288.048,333.453 279.715,344.12 271,354.5C 253.979,369.856 237.312,385.523 221,401.5C 214.933,410.29 207.933,418.29 200,425.5C 198.14,429.584 198.64,433.417 201.5,437C 197.84,445.972 200.84,449.638 210.5,448C 217.25,442.368 224.75,438.868 233,437.5C 245.135,433.071 257.635,429.904 270.5,428C 303.863,427.95 337.196,427.283 370.5,426C 382.192,421.405 392.692,414.905 402,406.5C 402.333,409.833 402.667,413.167 403,416.5C 404.713,417.878 406.047,419.545 407,421.5C 409.559,424.349 412.726,425.183 416.5,424C 420.128,420.208 421.294,415.708 420,410.5C 416.403,407.356 415.569,403.523 417.5,399C 417.022,397.697 416.355,396.531 415.5,395.5C 416.833,394.833 418.167,394.167 419.5,393.5C 438.869,393.483 458.202,394.317 477.5,396C 505.881,398.923 534.215,402.256 562.5,406C 569.5,406.333 576.5,406.667 583.5,407C 584.833,426 584.833,445 583.5,464C 571.167,464.667 558.833,464.667 546.5,464C 509.614,458.931 472.614,454.931 435.5,452C 381.612,450.265 327.945,452.931 274.5,460C 230,466.695 185.666,474.361 141.5,483C 121.108,485.279 100.775,484.946 80.5,482C 78.9571,480.122 77.1238,478.622 75,477.5C 74.3333,457.167 74.3333,436.833 75,416.5C 100.027,395.401 128.527,380.735 160.5,372.5C 166.042,371.374 171.376,369.541 176.5,367C 210.894,349.634 245.56,333.134 280.5,317.5 Z"/></g>
<g><path style="opacity:1" fill="#fcf90b" d="M 392.5,395.5 C 384.83,402.645 376.163,408.478 366.5,413C 334.5,413.333 302.5,413.667 270.5,414C 259.171,416.332 247.837,418.665 236.5,421C 230.61,423.627 224.61,425.627 218.5,427C 223.993,419.677 229.993,412.843 236.5,406.5C 288.158,398.36 340.158,394.693 392.5,395.5 Z"/></g>
</svg>
