<svg xmlns="http://www.w3.org/2000/svg" xmlns:xlink="http://www.w3.org/1999/xlink" stroke-dasharray="none" shape-rendering="auto" font-family="'Dialog'" width="207" text-rendering="auto" fill-opacity="1" contentScriptType="text/ecmascript" color-interpolation="auto" color-rendering="auto" preserveAspectRatio="xMidYMid meet" font-size="12" fill="black" stroke="black" image-rendering="auto" stroke-miterlimit="10" zoomAndPan="magnify" version="1.0" stroke-linecap="square" stroke-linejoin="miter" contentStyleType="text/css" font-style="normal" height="16" stroke-width="1" stroke-dashoffset="0" font-weight="normal" stroke-opacity="1"><defs id="genericDefs"/><g><g text-rendering="optimizeLegibility" transform="translate(1.4188,12)" color-rendering="optimizeQuality" color-interpolation="linearRGB" image-rendering="optimizeQuality"><path d="M1.9062 -11.1094 L1.9062 3.4531 L1.2656 3.4531 L1.2656 -11.1094 L1.9062 -11.1094 Z" stroke="none"/></g><g text-rendering="optimizeLegibility" transform="translate(6.572,12)" color-rendering="optimizeQuality" color-interpolation="linearRGB" image-rendering="optimizeQuality"><path d="M2.7812 -7.0781 Q3.1562 -6.6719 3.3594 -6.2656 Q3.5 -5.9844 3.8125 -4.7812 L4.5 -5.8125 Q4.7812 -6.1875 5.1719 -6.5312 Q5.5625 -6.875 5.8594 -7 Q6.0469 -7.0781 6.2656 -7.0781 Q6.6094 -7.0781 6.8047 -6.8984 Q7 -6.7188 7 -6.4531 Q7 -6.1562 6.8906 -6.0469 Q6.6719 -5.8594 6.3906 -5.8594 Q6.2188 -5.8594 6.0312 -5.9219 Q5.6719 -6.0469 5.5469 -6.0469 Q5.3594 -6.0469 5.0938 -5.8281 Q4.6094 -5.4219 3.9375 -4.2656 L4.5781 -1.5781 Q4.7344 -0.9531 4.8359 -0.8359 Q4.9375 -0.7188 5.0312 -0.7188 Q5.2031 -0.7188 5.4219 -0.8906 Q5.8438 -1.25 6.1562 -1.8281 L6.4219 -1.6875 Q5.9375 -0.7656 5.1719 -0.1562 Q4.75 0.1875 4.4531 0.1875 Q4.0156 0.1875 3.75 -0.3125 Q3.5938 -0.6094 3.0781 -2.9375 Q1.8594 -0.8125 1.125 -0.2031 Q0.6406 0.1875 0.2031 0.1875 Q-0.125 0.1875 -0.375 -0.0469 Q-0.5625 -0.2188 -0.5625 -0.5 Q-0.5625 -0.7656 -0.3906 -0.9375 Q-0.2188 -1.1094 0.0312 -1.1094 Q0.2812 -1.1094 0.5625 -0.8594 Q0.7656 -0.6719 0.875 -0.6719 Q0.9688 -0.6719 1.125 -0.7969 Q1.4844 -1.0938 2.1172 -2.0781 Q2.75 -3.0625 2.9531 -3.5 Q2.4688 -5.4062 2.4219 -5.5156 Q2.25 -6.0156 1.9609 -6.2266 Q1.6719 -6.4375 1.1094 -6.4375 Q0.9219 -6.4375 0.6875 -6.4219 L0.6875 -6.7031 L2.7812 -7.0781 Z" stroke="none"/></g><g text-rendering="optimizeLegibility" transform="translate(17.0035,12)" color-rendering="optimizeQuality" color-interpolation="linearRGB" image-rendering="optimizeQuality"><path d="M8.7188 -5 L0.2969 -5 L0.2969 -5.6406 L8.7188 -5.6406 L8.7188 -5 Z" stroke="none"/></g><g text-rendering="optimizeLegibility" transform="translate(29.4507,12)" color-rendering="optimizeQuality" color-interpolation="linearRGB" image-rendering="optimizeQuality"><path d="M1.875 -9.5625 L4.4531 -10.8125 L4.7188 -10.8125 L4.7188 -1.875 Q4.7188 -0.9844 4.7891 -0.7656 Q4.8594 -0.5469 5.0938 -0.4297 Q5.3281 -0.3125 6.0469 -0.2969 L6.0469 0 L2.0625 0 L2.0625 -0.2969 Q2.8125 -0.3125 3.0312 -0.4219 Q3.25 -0.5312 3.3359 -0.7266 Q3.4219 -0.9219 3.4219 -1.875 L3.4219 -7.5938 Q3.4219 -8.75 3.3438 -9.0781 Q3.2969 -9.3281 3.1484 -9.4453 Q3 -9.5625 2.7969 -9.5625 Q2.5156 -9.5625 2 -9.3125 L1.875 -9.5625 ZM8.5781 -5.2344 Q8.5781 -7.0469 9.125 -8.3594 Q9.6719 -9.6719 10.5781 -10.3125 Q11.2812 -10.8125 12.0312 -10.8125 Q13.25 -10.8125 14.2188 -9.5781 Q15.4375 -8.0312 15.4375 -5.4062 Q15.4375 -3.5625 14.9062 -2.2734 Q14.375 -0.9844 13.5469 -0.3984 Q12.7188 0.1875 11.9531 0.1875 Q10.4375 0.1875 9.4375 -1.6094 Q8.5781 -3.1094 8.5781 -5.2344 ZM10.1094 -5.0469 Q10.1094 -2.8594 10.6562 -1.4688 Q11.0938 -0.3125 11.9844 -0.3125 Q12.4062 -0.3125 12.8594 -0.6875 Q13.3125 -1.0625 13.5469 -1.9531 Q13.9062 -3.2969 13.9062 -5.75 Q13.9062 -7.5625 13.5312 -8.7656 Q13.25 -9.6719 12.7969 -10.0469 Q12.4844 -10.2969 12.0312 -10.2969 Q11.5 -10.2969 11.0781 -9.8281 Q10.5156 -9.1719 10.3125 -7.7812 Q10.1094 -6.3906 10.1094 -5.0469 Z" stroke="none"/></g><g text-rendering="optimizeLegibility" transform="translate(46.307,12)" color-rendering="optimizeQuality" color-interpolation="linearRGB" image-rendering="optimizeQuality"><path d="M1.9062 -11.1094 L1.9062 3.4531 L1.2656 3.4531 L1.2656 -11.1094 L1.9062 -11.1094 Z" stroke="none"/></g><g text-rendering="optimizeLegibility" transform="translate(53.5835,12)" color-rendering="optimizeQuality" color-interpolation="linearRGB" image-rendering="optimizeQuality"><path d="M4.1875 -1.1094 L4.1875 -5 L0.2969 -5 L0.2969 -5.6406 L4.1875 -5.6406 L4.1875 -9.5312 L4.8125 -9.5312 L4.8125 -5.6406 L8.7188 -5.6406 L8.7188 -5 L4.8125 -5 L4.8125 -1.1094 L4.1875 -1.1094 Z" stroke="none"/></g><g text-rendering="optimizeLegibility" transform="translate(66.7038,12)" color-rendering="optimizeQuality" color-interpolation="linearRGB" image-rendering="optimizeQuality"><path d="M1.9062 -11.1094 L1.9062 3.4531 L1.2656 3.4531 L1.2656 -11.1094 L1.9062 -11.1094 Z" stroke="none"/></g><g text-rendering="optimizeLegibility" transform="translate(71.857,12)" color-rendering="optimizeQuality" color-interpolation="linearRGB" image-rendering="optimizeQuality"><path d="M2.7812 -7.0781 Q3.1562 -6.6719 3.3594 -6.2656 Q3.5 -5.9844 3.8125 -4.7812 L4.5 -5.8125 Q4.7812 -6.1875 5.1719 -6.5312 Q5.5625 -6.875 5.8594 -7 Q6.0469 -7.0781 6.2656 -7.0781 Q6.6094 -7.0781 6.8047 -6.8984 Q7 -6.7188 7 -6.4531 Q7 -6.1562 6.8906 -6.0469 Q6.6719 -5.8594 6.3906 -5.8594 Q6.2188 -5.8594 6.0312 -5.9219 Q5.6719 -6.0469 5.5469 -6.0469 Q5.3594 -6.0469 5.0938 -5.8281 Q4.6094 -5.4219 3.9375 -4.2656 L4.5781 -1.5781 Q4.7344 -0.9531 4.8359 -0.8359 Q4.9375 -0.7188 5.0312 -0.7188 Q5.2031 -0.7188 5.4219 -0.8906 Q5.8438 -1.25 6.1562 -1.8281 L6.4219 -1.6875 Q5.9375 -0.7656 5.1719 -0.1562 Q4.75 0.1875 4.4531 0.1875 Q4.0156 0.1875 3.75 -0.3125 Q3.5938 -0.6094 3.0781 -2.9375 Q1.8594 -0.8125 1.125 -0.2031 Q0.6406 0.1875 0.2031 0.1875 Q-0.125 0.1875 -0.375 -0.0469 Q-0.5625 -0.2188 -0.5625 -0.5 Q-0.5625 -0.7656 -0.3906 -0.9375 Q-0.2188 -1.1094 0.0312 -1.1094 Q0.2812 -1.1094 0.5625 -0.8594 Q0.7656 -0.6719 0.875 -0.6719 Q0.9688 -0.6719 1.125 -0.7969 Q1.4844 -1.0938 2.1172 -2.0781 Q2.75 -3.0625 2.9531 -3.5 Q2.4688 -5.4062 2.4219 -5.5156 Q2.25 -6.0156 1.9609 -6.2266 Q1.6719 -6.4375 1.1094 -6.4375 Q0.9219 -6.4375 0.6875 -6.4219 L0.6875 -6.7031 L2.7812 -7.0781 Z" stroke="none"/></g><g text-rendering="optimizeLegibility" transform="translate(82.2885,12)" color-rendering="optimizeQuality" color-interpolation="linearRGB" image-rendering="optimizeQuality"><path d="M8.7188 -5 L0.2969 -5 L0.2969 -5.6406 L8.7188 -5.6406 L8.7188 -5 Z" stroke="none"/></g><g text-rendering="optimizeLegibility" transform="translate(94.7357,12)" color-rendering="optimizeQuality" color-interpolation="linearRGB" image-rendering="optimizeQuality"><path d="M7.4531 -3.9062 L7.4531 -2.7969 L6.0312 -2.7969 L6.0312 0 L4.7344 0 L4.7344 -2.7969 L0.25 -2.7969 L0.25 -3.7969 L5.1719 -10.8125 L6.0312 -10.8125 L6.0312 -3.9062 L7.4531 -3.9062 ZM4.7344 -3.9062 L4.7344 -9.1719 L1.0156 -3.9062 L4.7344 -3.9062 ZM8.5781 -5.2344 Q8.5781 -7.0469 9.125 -8.3594 Q9.6719 -9.6719 10.5781 -10.3125 Q11.2812 -10.8125 12.0312 -10.8125 Q13.25 -10.8125 14.2188 -9.5781 Q15.4375 -8.0312 15.4375 -5.4062 Q15.4375 -3.5625 14.9062 -2.2734 Q14.375 -0.9844 13.5469 -0.3984 Q12.7188 0.1875 11.9531 0.1875 Q10.4375 0.1875 9.4375 -1.6094 Q8.5781 -3.1094 8.5781 -5.2344 ZM10.1094 -5.0469 Q10.1094 -2.8594 10.6562 -1.4688 Q11.0938 -0.3125 11.9844 -0.3125 Q12.4062 -0.3125 12.8594 -0.6875 Q13.3125 -1.0625 13.5469 -1.9531 Q13.9062 -3.2969 13.9062 -5.75 Q13.9062 -7.5625 13.5312 -8.7656 Q13.25 -9.6719 12.7969 -10.0469 Q12.4844 -10.2969 12.0312 -10.2969 Q11.5 -10.2969 11.0781 -9.8281 Q10.5156 -9.1719 10.3125 -7.7812 Q10.1094 -6.3906 10.1094 -5.0469 Z" stroke="none"/></g><g text-rendering="optimizeLegibility" transform="translate(111.592,12)" color-rendering="optimizeQuality" color-interpolation="linearRGB" image-rendering="optimizeQuality"><path d="M1.9062 -11.1094 L1.9062 3.4531 L1.2656 3.4531 L1.2656 -11.1094 L1.9062 -11.1094 Z" stroke="none"/></g><g text-rendering="optimizeLegibility" transform="translate(119.6142,12)" color-rendering="optimizeQuality" color-interpolation="linearRGB" image-rendering="optimizeQuality"><path d="M8.7188 -5 L0.2969 -5 L0.2969 -5.6406 L8.7188 -5.6406 L8.7188 -5 Z" stroke="none"/></g><g text-rendering="optimizeLegibility" transform="translate(133.4802,12)" color-rendering="optimizeQuality" color-interpolation="linearRGB" image-rendering="optimizeQuality"><path d="M1.9062 -11.1094 L1.9062 3.4531 L1.2656 3.4531 L1.2656 -11.1094 L1.9062 -11.1094 Z" stroke="none"/></g><g text-rendering="optimizeLegibility" transform="translate(138.6334,12)" color-rendering="optimizeQuality" color-interpolation="linearRGB" image-rendering="optimizeQuality"><path d="M2.7812 -7.0781 Q3.1562 -6.6719 3.3594 -6.2656 Q3.5 -5.9844 3.8125 -4.7812 L4.5 -5.8125 Q4.7812 -6.1875 5.1719 -6.5312 Q5.5625 -6.875 5.8594 -7 Q6.0469 -7.0781 6.2656 -7.0781 Q6.6094 -7.0781 6.8047 -6.8984 Q7 -6.7188 7 -6.4531 Q7 -6.1562 6.8906 -6.0469 Q6.6719 -5.8594 6.3906 -5.8594 Q6.2188 -5.8594 6.0312 -5.9219 Q5.6719 -6.0469 5.5469 -6.0469 Q5.3594 -6.0469 5.0938 -5.8281 Q4.6094 -5.4219 3.9375 -4.2656 L4.5781 -1.5781 Q4.7344 -0.9531 4.8359 -0.8359 Q4.9375 -0.7188 5.0312 -0.7188 Q5.2031 -0.7188 5.4219 -0.8906 Q5.8438 -1.25 6.1562 -1.8281 L6.4219 -1.6875 Q5.9375 -0.7656 5.1719 -0.1562 Q4.75 0.1875 4.4531 0.1875 Q4.0156 0.1875 3.75 -0.3125 Q3.5938 -0.6094 3.0781 -2.9375 Q1.8594 -0.8125 1.125 -0.2031 Q0.6406 0.1875 0.2031 0.1875 Q-0.125 0.1875 -0.375 -0.0469 Q-0.5625 -0.2188 -0.5625 -0.5 Q-0.5625 -0.7656 -0.3906 -0.9375 Q-0.2188 -1.1094 0.0312 -1.1094 Q0.2812 -1.1094 0.5625 -0.8594 Q0.7656 -0.6719 0.875 -0.6719 Q0.9688 -0.6719 1.125 -0.7969 Q1.4844 -1.0938 2.1172 -2.0781 Q2.75 -3.0625 2.9531 -3.5 Q2.4688 -5.4062 2.4219 -5.5156 Q2.25 -6.0156 1.9609 -6.2266 Q1.6719 -6.4375 1.1094 -6.4375 Q0.9219 -6.4375 0.6875 -6.4219 L0.6875 -6.7031 L2.7812 -7.0781 Z" stroke="none"/></g><g text-rendering="optimizeLegibility" transform="translate(149.0649,12)" color-rendering="optimizeQuality" color-interpolation="linearRGB" image-rendering="optimizeQuality"><path d="M8.7188 -5 L0.2969 -5 L0.2969 -5.6406 L8.7188 -5.6406 L8.7188 -5 Z" stroke="none"/></g><g text-rendering="optimizeLegibility" transform="translate(161.5121,12)" color-rendering="optimizeQuality" color-interpolation="linearRGB" image-rendering="optimizeQuality"><path d="M7.3438 -2.0469 L6.5938 0 L0.3438 0 L0.3438 -0.2969 Q3.1094 -2.8125 4.2344 -4.4062 Q5.3594 -6 5.3594 -7.3125 Q5.3594 -8.3281 4.7422 -8.9766 Q4.125 -9.625 3.2656 -9.625 Q2.4844 -9.625 1.8594 -9.1641 Q1.2344 -8.7031 0.9375 -7.8281 L0.6562 -7.8281 Q0.8438 -9.2656 1.6562 -10.0391 Q2.4688 -10.8125 3.6719 -10.8125 Q4.9688 -10.8125 5.8281 -9.9844 Q6.6875 -9.1562 6.6875 -8.0312 Q6.6875 -7.2344 6.3125 -6.4219 Q5.7344 -5.1562 4.4375 -3.75 Q2.5 -1.625 2.0156 -1.1875 L4.7812 -1.1875 Q5.625 -1.1875 5.9609 -1.25 Q6.2969 -1.3125 6.5703 -1.5 Q6.8438 -1.6875 7.0469 -2.0469 L7.3438 -2.0469 ZM8.5781 -5.2344 Q8.5781 -7.0469 9.125 -8.3594 Q9.6719 -9.6719 10.5781 -10.3125 Q11.2812 -10.8125 12.0312 -10.8125 Q13.25 -10.8125 14.2188 -9.5781 Q15.4375 -8.0312 15.4375 -5.4062 Q15.4375 -3.5625 14.9062 -2.2734 Q14.375 -0.9844 13.5469 -0.3984 Q12.7188 0.1875 11.9531 0.1875 Q10.4375 0.1875 9.4375 -1.6094 Q8.5781 -3.1094 8.5781 -5.2344 ZM10.1094 -5.0469 Q10.1094 -2.8594 10.6562 -1.4688 Q11.0938 -0.3125 11.9844 -0.3125 Q12.4062 -0.3125 12.8594 -0.6875 Q13.3125 -1.0625 13.5469 -1.9531 Q13.9062 -3.2969 13.9062 -5.75 Q13.9062 -7.5625 13.5312 -8.7656 Q13.25 -9.6719 12.7969 -10.0469 Q12.4844 -10.2969 12.0312 -10.2969 Q11.5 -10.2969 11.0781 -9.8281 Q10.5156 -9.1719 10.3125 -7.7812 Q10.1094 -6.3906 10.1094 -5.0469 Z" stroke="none"/></g><g text-rendering="optimizeLegibility" transform="translate(178.3684,12)" color-rendering="optimizeQuality" color-interpolation="linearRGB" image-rendering="optimizeQuality"><path d="M1.9062 -11.1094 L1.9062 3.4531 L1.2656 3.4531 L1.2656 -11.1094 L1.9062 -11.1094 Z" stroke="none"/></g><g text-rendering="optimizeLegibility" transform="translate(186.3906,12)" color-rendering="optimizeQuality" color-interpolation="linearRGB" image-rendering="optimizeQuality"><path d="M0.2969 -6.9062 L8.7188 -6.9062 L8.7188 -6.2656 L0.2969 -6.2656 L0.2969 -6.9062 ZM0.2969 -4.3594 L8.7188 -4.3594 L8.7188 -3.7188 L0.2969 -3.7188 L0.2969 -4.3594 Z" stroke="none"/></g><g text-rendering="optimizeLegibility" transform="translate(198.8378,12)" color-rendering="optimizeQuality" color-interpolation="linearRGB" image-rendering="optimizeQuality"><path d="M7.5156 -7.0781 L5.9844 -1.7812 L5.8125 -1.0625 Q5.7969 -0.9688 5.7969 -0.8906 Q5.7969 -0.7656 5.875 -0.6719 Q5.9375 -0.6094 6.0312 -0.6094 Q6.125 -0.6094 6.2969 -0.7344 Q6.5938 -0.9531 7.1094 -1.6719 L7.375 -1.4844 Q6.8281 -0.6719 6.2578 -0.2422 Q5.6875 0.1875 5.2031 0.1875 Q4.875 0.1875 4.7031 0.0156 Q4.5312 -0.1562 4.5312 -0.4688 Q4.5312 -0.8594 4.7031 -1.4844 L4.875 -2.0625 Q3.8438 -0.7344 2.9844 -0.2031 Q2.375 0.1875 1.7812 0.1875 Q1.2031 0.1875 0.7891 -0.2891 Q0.375 -0.7656 0.375 -1.5938 Q0.375 -2.8281 1.125 -4.2109 Q1.875 -5.5938 3.0156 -6.4219 Q3.9219 -7.0781 4.7188 -7.0781 Q5.1875 -7.0781 5.5078 -6.8281 Q5.8281 -6.5781 5.9844 -6 L6.2656 -6.8906 L7.5156 -7.0781 ZM4.7344 -6.6719 Q4.2344 -6.6719 3.6719 -6.2031 Q2.875 -5.5312 2.25 -4.2266 Q1.625 -2.9219 1.625 -1.875 Q1.625 -1.3438 1.8906 -1.0312 Q2.1562 -0.7188 2.5 -0.7188 Q3.3594 -0.7188 4.3594 -1.9844 Q5.6875 -3.6562 5.6875 -5.4062 Q5.6875 -6.0781 5.4297 -6.375 Q5.1719 -6.6719 4.7344 -6.6719 Z" stroke="none"/></g></g></svg>